# xmcd CD database file
#
# Track frame offsets:
#	150
#	29372
#	49693
#	69144
#	87912
#	95923
#	117852
#	138590
#	160211
#	176156
#	196899
#	215123
#	224591
#	241266
#	252225
#
# Disc length: 3704 seconds
#
# Revision: 0
# Processed by: cddbd v1.5.2PL0 Copyright (c) Steve Scherf et al.
# Submitted via: CDex 1.70beta2
#
DISCID=df0e760f
DTITLE=Mojmir Bartej and Trombone Summit - V Brne
DYEAR=2009
DGENRE=Jazz
TTITLE0=V zatacce
TTITLE1=Talir cukrovi
TTITLE2=Mobatela
TTITLE3=Zima v pokoji
TTITLE4=Reminiscence
TTITLE5=A co takhle swing
TTITLE6=Samba de Orfeu
TTITLE7=Here's That Rainy Day
TTITLE8=Cagey
TTITLE9=Chaluparsky valcik
TTITLE10=Sanok blues
TTITLE11=Dialog
TTITLE12=Jako kazdy den
TTITLE13=Episoda
TTITLE14=Ktery to vic roztoci
EXTD=YEAR: 2009
EXTT0=
EXTT1=
EXTT2=
EXTT3=
EXTT4=
EXTT5=
EXTT6=
EXTT7=
EXTT8=
EXTT9=
EXTT10=
EXTT11=
EXTT12=
EXTT13=
EXTT14=
PLAYORDER=
